<svg width="48" height="48" viewBox="0 0 48 48" fill="none" xmlns="http://www.w3.org/2000/svg">
<g opacity="0.06">
<rect width="48" height="48" rx="8" fill="#1565D8"/>
</g>
<path d="M14.7189 18.8327H17.844C18.3675 18.8327 18.792 19.2418 18.792 19.7466C18.792 20.2513 18.3675 20.6604 17.844 20.6604H12.7879C12.2643 20.6604 11.8398 20.2513 11.8398 19.7466V14.8725C11.8398 14.3678 12.2643 13.9587 12.7879 13.9587C13.3114 13.9587 13.7359 14.3678 13.7359 14.8725V16.9039C16.8176 12.6568 22.5446 10.7303 27.8449 12.4896C32.8313 14.1447 36.1617 18.6677 36.1598 23.7263C36.1597 24.231 35.7351 24.64 35.2115 24.6398C34.6879 24.6397 34.2636 24.2304 34.2638 23.7256C34.2654 19.4458 31.447 15.6183 27.2276 14.2177C22.3916 12.6125 17.1349 14.6341 14.7189 18.8327Z" fill="#B4CCEF"/>
<path fill-rule="evenodd" clip-rule="evenodd" d="M33.2491 29.153H30.1647C29.6419 29.153 29.2181 28.743 29.2181 28.2373C29.2181 27.7316 29.6419 27.3216 30.1647 27.3216H35.2132C35.736 27.3216 36.1598 27.7316 36.1598 28.2373V33.1209C36.1598 33.6266 35.736 34.0366 35.2132 34.0366C34.6904 34.0366 34.2666 33.6266 34.2666 33.1209V31.0357C31.1964 35.3293 25.4515 37.2774 20.1424 35.509C15.1731 33.8538 11.85 29.336 11.8398 24.2773C11.8388 23.7716 12.2618 23.3608 12.7846 23.3599C13.3074 23.3589 13.732 23.7681 13.7331 24.2738C13.7416 28.5537 16.5539 32.3769 20.7588 33.7774C25.5839 35.3846 30.8352 33.3635 33.2491 29.153Z" fill="#1565D8"/>
</svg>
