<svg width="48" height="48" viewBox="0 0 48 48" fill="none" xmlns="http://www.w3.org/2000/svg">
<g opacity="0.06">
<rect width="48" height="48" rx="8" fill="#1565D8"/>
</g>
<path fill-rule="evenodd" clip-rule="evenodd" d="M12.4801 10.5601H20.1601C21.2204 10.5601 22.0801 11.4197 22.0801 12.4801V20.1601C22.0801 21.2204 21.2204 22.0801 20.1601 22.0801H12.4801C11.4197 22.0801 10.5601 21.2204 10.5601 20.1601V12.4801C10.5601 11.4197 11.4197 10.5601 12.4801 10.5601ZM27.8401 25.9201H35.5201C36.5804 25.9201 37.4401 26.7797 37.4401 27.8401V35.5201C37.4401 36.5804 36.5804 37.4401 35.5201 37.4401H27.8401C26.7797 37.4401 25.9201 36.5804 25.9201 35.5201V27.8401C25.9201 26.7797 26.7797 25.9201 27.8401 25.9201Z" fill="#1565D8"/>
<path opacity="0.3" fill-rule="evenodd" clip-rule="evenodd" d="M27.8401 10.5601H35.5201C36.5804 10.5601 37.4401 11.4197 37.4401 12.4801V20.1601C37.4401 21.2204 36.5804 22.0801 35.5201 22.0801H27.8401C26.7797 22.0801 25.9201 21.2204 25.9201 20.1601V12.4801C25.9201 11.4197 26.7797 10.5601 27.8401 10.5601ZM12.4801 25.9201H20.1601C21.2204 25.9201 22.0801 26.7797 22.0801 27.8401V35.5201C22.0801 36.5804 21.2204 37.4401 20.1601 37.4401H12.4801C11.4197 37.4401 10.5601 36.5804 10.5601 35.5201V27.8401C10.5601 26.7797 11.4197 25.9201 12.4801 25.9201Z" fill="#1565D8"/>
</svg>
