<svg width="24" height="24" viewBox="0 0 24 24" fill="none" xmlns="http://www.w3.org/2000/svg">
<rect width="24" height="24" fill="#1E1E1E"/>
<g id="Desktop - 2" clip-path="url(#clip0_4_3)">
<rect width="1440" height="7640" transform="translate(-915 -5952)" fill="white"/>
<rect id="Rectangle 8" x="-915" y="-5952" width="1440" height="7640" fill="#E5E5E5"/>
<g id="Frame 2">
<g id="Newsletter">
<rect id="Rectangle 9" x="-911" y="-404" width="1440" height="672" fill="white"/>
<g id="Group 17">
<g id="Input" clip-path="url(#clip1_4_3)">
<g id="Rectangle" filter="url(#filter0_d_4_3)">
<rect x="-419" y="-16" width="457" height="52" rx="4" fill="#F7FAFE"/>
</g>
<g id="Button" clip-path="url(#clip2_4_3)">
<rect id="Base" x="-8" y="-10" width="40" height="40" rx="4" fill="#F3C723"/>
</g>
<g id="unsubscribe_black_24dp 1" clip-path="url(#clip3_4_3)">
<path id="Vector" d="M20.99 14.04V5C20.99 3.9 20.09 3 18.99 3H5C3.9 3 3 3.9 3 5V15C3 16.1 3.9 17 5 17H15.05C15.33 18.92 17.15 20.35 19.23 19.93C20.57 19.66 21.66 18.56 21.93 17.22C22.18 15.98 21.77 14.83 20.99 14.04ZM18.99 5L12 8.5L5 5H18.99ZM15.35 15H5V7L12 10.5L19 7V13.05C18.84 13.03 18.67 13 18.5 13C17.11 13 15.91 13.82 15.35 15ZM20.5 17H16.5V16H20.5V17Z" fill="white"/>
</g>
</g>
</g>
</g>
</g>
</g>
<defs>
<filter id="filter0_d_4_3" x="-467" y="-62" width="553" height="148" filterUnits="userSpaceOnUse" color-interpolation-filters="sRGB">
<feFlood flood-opacity="0" result="BackgroundImageFix"/>
<feColorMatrix in="SourceAlpha" type="matrix" values="0 0 0 0 0 0 0 0 0 0 0 0 0 0 0 0 0 0 127 0" result="hardAlpha"/>
<feOffset dy="2"/>
<feGaussianBlur stdDeviation="24"/>
<feColorMatrix type="matrix" values="0 0 0 0 0 0 0 0 0 0 0 0 0 0 0 0 0 0 0.06 0"/>
<feBlend mode="normal" in2="BackgroundImageFix" result="effect1_dropShadow_4_3"/>
<feBlend mode="normal" in="SourceGraphic" in2="effect1_dropShadow_4_3" result="shape"/>
</filter>
<clipPath id="clip0_4_3">
<rect width="1440" height="7640" fill="white" transform="translate(-915 -5952)"/>
</clipPath>
<clipPath id="clip1_4_3">
<rect width="457" height="52" fill="white" transform="translate(-419 -16)"/>
</clipPath>
<clipPath id="clip2_4_3">
<rect width="40" height="40" fill="white" transform="translate(-8 -10)"/>
</clipPath>
<clipPath id="clip3_4_3">
<rect width="24" height="24" fill="white"/>
</clipPath>
</defs>
</svg>
