<svg width="24" height="30" viewBox="0 0 24 30" fill="none" xmlns="http://www.w3.org/2000/svg">
<g id="Group">
<path id="Path" fill-rule="evenodd" clip-rule="evenodd" d="M10.4467 5.46875C11.6694 5.46875 12.6607 6.3656 12.6607 7.47192V15.5197C12.6607 15.5197 17.0588 16.2154 21.1456 17.91C23.8702 19.0396 23.8702 23.0697 21.1456 30.0001H8.34346C2.45792 25.6379 -0.121111 22.7495 0.606371 21.3351C1.33385 19.9207 3.87598 20.1511 8.23275 22.0263V7.47192C8.23275 6.3656 9.22397 5.46875 10.4467 5.46875Z" fill="#FE655F"/>
<path id="Path_2" fill-rule="evenodd" clip-rule="evenodd" d="M10.4461 0C14.7244 0 18.1925 3.13798 18.1925 7.00887C18.1925 9.60298 16.6349 11.8679 14.3198 13.0798L14.3193 7.50951C14.3193 5.57406 12.5852 4.00507 10.4461 4.00507C8.30701 4.00507 6.57292 5.57406 6.57292 7.50951L6.57356 13.0804C4.2578 11.8686 2.69971 9.60339 2.69971 7.00887C2.69971 3.13798 6.1679 0 10.4461 0Z" fill="#B8D0F3"/>
</g>
</svg>
